<svg width="1200" height="760" viewBox="0 0 1200 760" fill="none" xmlns="http://www.w3.org/2000/svg">
  <rect width="1200" height="760" rx="56" fill="#0B2457"/>
  <circle cx="1000" cy="90" r="190" fill="#1769C2" opacity=".45"/>
  <circle cx="120" cy="700" r="220" fill="#2580DF" opacity=".18"/>
  <rect x="110" y="105" width="980" height="550" rx="42" fill="#F8FBFF"/>
  <rect x="150" y="146" width="305" height="468" rx="32" fill="#EAF4FF"/>
  <rect x="493" y="146" width="557" height="220" rx="32" fill="white" stroke="#DBEAFE" stroke-width="4"/>
  <rect x="493" y="395" width="264" height="219" rx="32" fill="#1769C2"/>
  <rect x="786" y="395" width="264" height="219" rx="32" fill="white" stroke="#DBEAFE" stroke-width="4"/>
  <circle cx="302" cy="262" r="74" fill="#1769C2"/>
  <path d="M262 269L296 297L350 229" stroke="white" stroke-width="18" stroke-linecap="round" stroke-linejoin="round"/>
  <rect x="205" y="373" width="190" height="18" rx="9" fill="#0B2457"/>
  <rect x="220" y="410" width="160" height="12" rx="6" fill="#93C5FD"/>
  <rect x="190" y="447" width="220" height="76" rx="22" fill="white"/>
  <rect x="219" y="472" width="116" height="12" rx="6" fill="#1769C2"/>
  <rect x="219" y="497" width="156" height="10" rx="5" fill="#CBD5E1"/>
  <path d="M542 218H670" stroke="#1769C2" stroke-width="14" stroke-linecap="round"/>
  <path d="M542 255H930" stroke="#0F172A" stroke-width="22" stroke-linecap="round"/>
  <path d="M542 300H868" stroke="#CBD5E1" stroke-width="12" stroke-linecap="round"/>
  <circle cx="555" cy="461" r="28" fill="#DBEAFE"/>
  <path d="M554 445V477M538 461H570" stroke="#1769C2" stroke-width="8" stroke-linecap="round"/>
  <path d="M543 514H700" stroke="white" stroke-width="16" stroke-linecap="round"/>
  <path d="M543 551H663" stroke="#BFDBFE" stroke-width="11" stroke-linecap="round"/>
  <circle cx="857" cy="464" r="29" fill="#DBEAFE"/>
  <path d="M843 466L853 476L872 450" stroke="#1769C2" stroke-width="8" stroke-linecap="round" stroke-linejoin="round"/>
  <path d="M832 515H993" stroke="#0F172A" stroke-width="16" stroke-linecap="round"/>
  <path d="M832 551H958" stroke="#CBD5E1" stroke-width="11" stroke-linecap="round"/>
</svg>
